<mxfile host="app.diagrams.net" agent="Mozilla/5.0 (Windows NT 10.0; Win64; x64) AppleWebKit/537.36 (KHTML, like Gecko) Chrome/136.0.0.0 Safari/537.36" version="27.0.5">
  <diagram id="C5RBs43oDa-KdzZeNtuy" name="Page-1">
    <mxGraphModel dx="2084" dy="1262" grid="1" gridSize="10" guides="1" tooltips="1" connect="1" arrows="1" fold="1" page="1" pageScale="1" pageWidth="1169" pageHeight="827" math="0" shadow="0">
      <root>
        <mxCell id="WIyWlLk6GJQsqaUBKTNV-0" />
        <mxCell id="WIyWlLk6GJQsqaUBKTNV-1" parent="WIyWlLk6GJQsqaUBKTNV-0" />
        <mxCell id="utWPcHmu2K7LS_2S_HRB-1" value="&lt;font style=&quot;font-size: 24px;&quot;&gt;&lt;b style=&quot;&quot;&gt;&lt;u style=&quot;&quot;&gt;&lt;font style=&quot;font-size: 24px;&quot;&gt;Accessing Data (&lt;/font&gt;&lt;/u&gt;&lt;/b&gt;&lt;b style=&quot;background-color: initial;&quot;&gt;&lt;u style=&quot;&quot;&gt;A-series)&lt;/u&gt;&lt;/b&gt;&lt;/font&gt;" style="text;html=1;align=center;verticalAlign=middle;resizable=0;points=[];autosize=1;strokeColor=none;fillColor=none;fontSize=14;" parent="WIyWlLk6GJQsqaUBKTNV-1" vertex="1">
          <mxGeometry x="80" y="200" width="320" height="40" as="geometry" />
        </mxCell>
        <mxCell id="qkU0JbKQ6EuipafsIjLe-33" value="&lt;p data-pm-slice=&quot;1 1 [&amp;quot;body&amp;quot;,null]&quot;&gt;&lt;font size=&quot;1&quot; style=&quot;&quot; color=&quot;#000000&quot;&gt;&lt;b style=&quot;font-size: 18px;&quot;&gt;A101: Explore phenotype tables&lt;/b&gt;&lt;/font&gt;&lt;/p&gt;" style="whiteSpace=wrap;html=1;fillColor=#e1d5e7;strokeColor=#9673a6;rounded=1;" parent="WIyWlLk6GJQsqaUBKTNV-1" vertex="1">
          <mxGeometry x="82.5" y="280" width="317.5" height="50" as="geometry" />
        </mxCell>
        <mxCell id="qkU0JbKQ6EuipafsIjLe-34" value="&lt;p data-pm-slice=&quot;1 1 [&amp;quot;body&amp;quot;,null]&quot;&gt;&lt;b&gt;&lt;font style=&quot;font-size: 18px;&quot; color=&quot;#000000&quot;&gt;A102: Explore participant data&lt;/font&gt;&lt;/b&gt;&lt;/p&gt;" style="whiteSpace=wrap;html=1;fillColor=#e1d5e7;strokeColor=#9673a6;rounded=1;" parent="WIyWlLk6GJQsqaUBKTNV-1" vertex="1">
          <mxGeometry x="84" y="360" width="315" height="50" as="geometry" />
        </mxCell>
        <mxCell id="qkU0JbKQ6EuipafsIjLe-35" value="&lt;p data-pm-slice=&quot;1 1 [&amp;quot;body&amp;quot;,null]&quot;&gt;&lt;b&gt;&lt;font style=&quot;font-size: 18px;&quot; color=&quot;#000000&quot;&gt;A103: Export participant data*&lt;/font&gt;&lt;/b&gt;&lt;/p&gt;" style="whiteSpace=wrap;html=1;fillColor=#e1d5e7;strokeColor=#9673a6;rounded=1;" parent="WIyWlLk6GJQsqaUBKTNV-1" vertex="1">
          <mxGeometry x="82.75" y="440" width="316.25" height="50" as="geometry" />
        </mxCell>
        <mxCell id="qkU0JbKQ6EuipafsIjLe-36" value="&lt;p data-pm-slice=&quot;1 1 [&amp;quot;body&amp;quot;,null]&quot;&gt;&lt;b&gt;&lt;font style=&quot;font-size: 18px;&quot; color=&quot;#000000&quot;&gt;A104: Explore phenotype tables&lt;/font&gt;&lt;/b&gt;&lt;/p&gt;" style="whiteSpace=wrap;html=1;fillColor=#d5e8d4;strokeColor=#82b366;rounded=1;" parent="WIyWlLk6GJQsqaUBKTNV-1" vertex="1">
          <mxGeometry x="84" y="520" width="317.5" height="50" as="geometry" />
        </mxCell>
        <mxCell id="qkU0JbKQ6EuipafsIjLe-37" value="&lt;p data-pm-slice=&quot;1 1 [&amp;quot;body&amp;quot;,null]&quot;&gt;&lt;b&gt;&lt;font style=&quot;font-size: 18px;&quot; color=&quot;#000000&quot;&gt;A105: Export participant data&lt;/font&gt;&lt;/b&gt;&lt;/p&gt;" style="whiteSpace=wrap;html=1;fillColor=#d5e8d4;strokeColor=#82b366;rounded=1;" parent="WIyWlLk6GJQsqaUBKTNV-1" vertex="1">
          <mxGeometry x="85" y="600" width="315" height="50" as="geometry" />
        </mxCell>
        <mxCell id="-CC2sMJTHef0MXigFTxT-0" value="&lt;p style=&quot;font-size: 18px;&quot; data-pm-slice=&quot;1 1 [&amp;quot;body&amp;quot;,null]&quot;&gt;&lt;b&gt;&lt;font style=&quot;font-size: 18px;&quot; color=&quot;#000000&quot;&gt;A107: &lt;/font&gt;&lt;span style=&quot;background-color: initial;&quot;&gt;OMOP data: hypertension case-study&lt;/span&gt;&lt;/b&gt;&lt;/p&gt;" style="whiteSpace=wrap;html=1;fillColor=#d5e8d4;strokeColor=#82b366;rounded=1;" parent="WIyWlLk6GJQsqaUBKTNV-1" vertex="1">
          <mxGeometry x="83" y="760" width="316" height="50" as="geometry" />
        </mxCell>
        <mxCell id="cBM6i3Q44ZDb_svsSfaw-12" value="&lt;p data-pm-slice=&quot;1 1 [&amp;quot;body&amp;quot;,null]&quot;&gt;&lt;b&gt;&lt;font style=&quot;font-size: 18px;&quot; color=&quot;#000000&quot;&gt;A106: Hypertension data&lt;/font&gt;&lt;/b&gt;&lt;/p&gt;" style="whiteSpace=wrap;html=1;fillColor=#d5e8d4;strokeColor=#82b366;rounded=1;" parent="WIyWlLk6GJQsqaUBKTNV-1" vertex="1">
          <mxGeometry x="83" y="680" width="316" height="50" as="geometry" />
        </mxCell>
        <mxCell id="cBM6i3Q44ZDb_svsSfaw-13" value="&lt;p style=&quot;&quot; data-pm-slice=&quot;1 1 [&amp;quot;body&amp;quot;,null]&quot;&gt;&lt;b style=&quot;&quot;&gt;&lt;font style=&quot;font-size: 18px;&quot; color=&quot;#000000&quot;&gt;A108: Constructing the OLINK dataset&lt;/font&gt;&lt;/b&gt;&lt;/p&gt;" style="whiteSpace=wrap;html=1;fillColor=#d5e8d4;strokeColor=#82b366;rounded=1;" parent="WIyWlLk6GJQsqaUBKTNV-1" vertex="1">
          <mxGeometry x="83.75" y="840" width="317.5" height="50" as="geometry" />
        </mxCell>
        <mxCell id="drLCQwcifuYnmMI9fRuJ-3" value="&lt;p style=&quot;&quot; data-pm-slice=&quot;1 1 [&amp;quot;body&amp;quot;,null]&quot;&gt;&lt;b style=&quot;&quot;&gt;&lt;font style=&quot;font-size: 18px;&quot; color=&quot;#000000&quot;&gt;A109: Find participant bulk files&lt;/font&gt;&lt;/b&gt;&lt;/p&gt;" style="whiteSpace=wrap;html=1;fillColor=#e1d5e7;strokeColor=#9673a6;rounded=1;" parent="WIyWlLk6GJQsqaUBKTNV-1" vertex="1">
          <mxGeometry x="85" y="920" width="317.5" height="50" as="geometry" />
        </mxCell>
        <mxCell id="drLCQwcifuYnmMI9fRuJ-4" value="&lt;p style=&quot;&quot; data-pm-slice=&quot;1 1 [&amp;quot;body&amp;quot;,null]&quot;&gt;&lt;b style=&quot;&quot;&gt;&lt;font style=&quot;font-size: 18px;&quot; color=&quot;#000000&quot;&gt;A110: Export participant data&lt;/font&gt;&lt;/b&gt;&lt;/p&gt;" style="whiteSpace=wrap;html=1;fillColor=#dae8fc;strokeColor=#6c8ebf;rounded=1;" parent="WIyWlLk6GJQsqaUBKTNV-1" vertex="1">
          <mxGeometry x="85" y="1000" width="317.5" height="50" as="geometry" />
        </mxCell>
        <mxCell id="drLCQwcifuYnmMI9fRuJ-5" value="&lt;p style=&quot;&quot; data-pm-slice=&quot;1 1 [&amp;quot;body&amp;quot;,null]&quot;&gt;&lt;b style=&quot;&quot;&gt;&lt;font style=&quot;font-size: 18px;&quot; color=&quot;#000000&quot;&gt;A111: Import and Analyse participant data&lt;/font&gt;&lt;/b&gt;&lt;/p&gt;" style="whiteSpace=wrap;html=1;fillColor=#dae8fc;strokeColor=#6c8ebf;rounded=1;" parent="WIyWlLk6GJQsqaUBKTNV-1" vertex="1">
          <mxGeometry x="85" y="1080" width="317.5" height="50" as="geometry" />
        </mxCell>
        <mxCell id="drLCQwcifuYnmMI9fRuJ-0" value="&lt;p data-pm-slice=&quot;1 1 [&amp;quot;body&amp;quot;,null]&quot;&gt;&lt;font size=&quot;1&quot; style=&quot;&quot; color=&quot;#000000&quot;&gt;&lt;b style=&quot;font-size: 18px;&quot;&gt;Jupyter Notebook - Python&lt;/b&gt;&lt;/font&gt;&lt;/p&gt;" style="whiteSpace=wrap;html=1;fillColor=#e1d5e7;strokeColor=#9673a6;rounded=1;shadow=0;" parent="WIyWlLk6GJQsqaUBKTNV-1" vertex="1">
          <mxGeometry x="650" y="250" width="317.5" height="50" as="geometry" />
        </mxCell>
        <mxCell id="drLCQwcifuYnmMI9fRuJ-1" value="&lt;p data-pm-slice=&quot;1 1 [&amp;quot;body&amp;quot;,null]&quot;&gt;&lt;font size=&quot;1&quot; style=&quot;&quot; color=&quot;#000000&quot;&gt;&lt;b style=&quot;font-size: 18px;&quot;&gt;Jupyter Notebook - R&lt;/b&gt;&lt;/font&gt;&lt;/p&gt;" style="whiteSpace=wrap;html=1;fillColor=#d5e8d4;strokeColor=#82b366;rounded=1;shadow=0;" parent="WIyWlLk6GJQsqaUBKTNV-1" vertex="1">
          <mxGeometry x="650" y="320" width="317.5" height="50" as="geometry" />
        </mxCell>
        <mxCell id="drLCQwcifuYnmMI9fRuJ-2" value="&lt;p data-pm-slice=&quot;1 1 [&amp;quot;body&amp;quot;,null]&quot;&gt;&lt;span style=&quot;font-size: 18px;&quot;&gt;&lt;b&gt;RStudio Notebook&lt;/b&gt;&lt;/span&gt;&lt;/p&gt;" style="whiteSpace=wrap;html=1;fillColor=#dae8fc;strokeColor=#6c8ebf;rounded=1;shadow=0;" parent="WIyWlLk6GJQsqaUBKTNV-1" vertex="1">
          <mxGeometry x="650" y="390" width="317.5" height="50" as="geometry" />
        </mxCell>
        <mxCell id="drLCQwcifuYnmMI9fRuJ-6" value="&lt;span style=&quot;font-size: 24px;&quot;&gt;&lt;b&gt;&lt;u&gt;Notebooks type&lt;/u&gt;&lt;/b&gt;&lt;/span&gt;" style="text;html=1;align=center;verticalAlign=middle;resizable=0;points=[];autosize=1;strokeColor=none;fillColor=none;fontSize=14;" parent="WIyWlLk6GJQsqaUBKTNV-1" vertex="1">
          <mxGeometry x="708.75" y="200" width="200" height="40" as="geometry" />
        </mxCell>
        <mxCell id="apwKdgt0WQenaczrlZ3U-0" value="&lt;p style=&quot;&quot; data-pm-slice=&quot;1 1 [&amp;quot;body&amp;quot;,null]&quot;&gt;&lt;b style=&quot;&quot;&gt;&lt;font style=&quot;font-size: 18px;&quot; color=&quot;#000000&quot;&gt;A112: Sleep questionnaire access&lt;/font&gt;&lt;/b&gt;&lt;/p&gt;" style="whiteSpace=wrap;html=1;fillColor=#E1D5E7;strokeColor=#9673A6;rounded=1;gradientColor=none;" parent="WIyWlLk6GJQsqaUBKTNV-1" vertex="1">
          <mxGeometry x="85" y="1160" width="317.5" height="50" as="geometry" />
        </mxCell>
        <mxCell id="apwKdgt0WQenaczrlZ3U-2" value="&lt;p style=&quot;&quot; data-pm-slice=&quot;1 1 [&amp;quot;body&amp;quot;,null]&quot;&gt;&lt;b&gt;&lt;font style=&quot;font-size: 18px;&quot;&gt;A113: Sleep questionnaire access&lt;/font&gt;&lt;/b&gt;&lt;/p&gt;" style="whiteSpace=wrap;html=1;fillColor=#dae8fc;strokeColor=#6c8ebf;rounded=1;" parent="WIyWlLk6GJQsqaUBKTNV-1" vertex="1">
          <mxGeometry x="85" y="1241" width="317.5" height="50" as="geometry" />
        </mxCell>
      </root>
    </mxGraphModel>
  </diagram>
</mxfile>
